<mxfile host="Electron" agent="Mozilla/5.0 (Windows NT 10.0; Win64; x64) AppleWebKit/537.36 (KHTML, like Gecko) draw.io/23.0.2 Chrome/120.0.6099.109 Electron/28.1.0 Safari/537.36" modified="2025-02-25T13:45:06.357Z" version="23.0.2" etag="psml9m8jlZh8A850XWBt" type="device">
  <diagram id="Ht1M8jgEwFfnCIfOTk4-" name="Page-1">
    <mxGraphModel dx="1434" dy="836" grid="1" gridSize="10" guides="1" tooltips="1" connect="1" arrows="1" fold="1" page="1" pageScale="1" pageWidth="1169" pageHeight="827" math="0" shadow="0">
      <root>
        <mxCell id="0" />
        <mxCell id="1" parent="0" />
        <mxCell id="UEzPUAAOIrF-is8g5C7q-116" value="rss-feed-bucket-result" style="outlineConnect=0;fontColor=#FFFFFF;gradientColor=#60A337;gradientDirection=north;fillColor=#277116;strokeColor=#ffffff;dashed=0;verticalLabelPosition=bottom;verticalAlign=top;align=center;fontSize=12;fontStyle=0;aspect=fixed;shape=mxgraph.aws4.resourceIcon;resIcon=mxgraph.aws4.s3;labelBackgroundColor=none;fontFamily=Helvetica;html=1;" parent="1" vertex="1">
          <mxGeometry x="530.0000000000002" y="223" width="78" height="78" as="geometry" />
        </mxCell>
        <mxCell id="m1kPSWAIxEd_lFpvvYN0-1" value="EventBridge" style="sketch=0;points=[[0,0,0],[0.25,0,0],[0.5,0,0],[0.75,0,0],[1,0,0],[0,1,0],[0.25,1,0],[0.5,1,0],[0.75,1,0],[1,1,0],[0,0.25,0],[0,0.5,0],[0,0.75,0],[1,0.25,0],[1,0.5,0],[1,0.75,0]];outlineConnect=0;fontColor=#FFFFFF;fillColor=#E7157B;strokeColor=#ffffff;dashed=0;verticalLabelPosition=bottom;verticalAlign=top;align=center;fontSize=12;fontStyle=0;aspect=fixed;shape=mxgraph.aws4.resourceIcon;resIcon=mxgraph.aws4.eventbridge;fontFamily=Helvetica;html=1;" parent="1" vertex="1">
          <mxGeometry x="320" y="48" width="78" height="78" as="geometry" />
        </mxCell>
        <mxCell id="m1kPSWAIxEd_lFpvvYN0-5" value="" style="edgeStyle=orthogonalEdgeStyle;rounded=0;orthogonalLoop=1;jettySize=auto;fontFamily=Helvetica;fontColor=#FFFFFF;html=1;" parent="1" source="m1kPSWAIxEd_lFpvvYN0-2" target="m1kPSWAIxEd_lFpvvYN0-4" edge="1">
          <mxGeometry relative="1" as="geometry" />
        </mxCell>
        <mxCell id="m1kPSWAIxEd_lFpvvYN0-8" value="" style="edgeStyle=orthogonalEdgeStyle;rounded=0;orthogonalLoop=1;jettySize=auto;fontFamily=Helvetica;fontColor=#FFFFFF;html=1;" parent="1" source="m1kPSWAIxEd_lFpvvYN0-2" target="UEzPUAAOIrF-is8g5C7q-116" edge="1">
          <mxGeometry relative="1" as="geometry" />
        </mxCell>
        <mxCell id="m1kPSWAIxEd_lFpvvYN0-10" value="" style="edgeStyle=orthogonalEdgeStyle;rounded=0;orthogonalLoop=1;jettySize=auto;entryX=0.958;entryY=0.556;entryDx=0;entryDy=0;entryPerimeter=0;fontFamily=Helvetica;fontColor=#FFFFFF;html=1;" parent="1" source="m1kPSWAIxEd_lFpvvYN0-2" target="m1kPSWAIxEd_lFpvvYN0-13" edge="1">
          <mxGeometry relative="1" as="geometry">
            <mxPoint x="240" y="262.5999999999999" as="targetPoint" />
          </mxGeometry>
        </mxCell>
        <mxCell id="m1kPSWAIxEd_lFpvvYN0-16" value="" style="edgeStyle=orthogonalEdgeStyle;rounded=0;orthogonalLoop=1;jettySize=auto;exitX=0.5;exitY=1;exitDx=0;exitDy=0;exitPerimeter=0;fontFamily=Helvetica;fontColor=#FFFFFF;html=1;" parent="1" source="m1kPSWAIxEd_lFpvvYN0-2" target="m1kPSWAIxEd_lFpvvYN0-15" edge="1">
          <mxGeometry relative="1" as="geometry" />
        </mxCell>
        <mxCell id="pze8DI6Sxg6kq2NsFFnC-1" value="" style="edgeStyle=orthogonalEdgeStyle;rounded=0;orthogonalLoop=1;jettySize=auto;fontFamily=Helvetica;fontColor=#FFFFFF;html=1;" edge="1" parent="1" source="m1kPSWAIxEd_lFpvvYN0-2" target="m1kPSWAIxEd_lFpvvYN0-4">
          <mxGeometry relative="1" as="geometry" />
        </mxCell>
        <mxCell id="m1kPSWAIxEd_lFpvvYN0-2" value="rss-check-rss-feed-lambda&lt;br&gt;" style="sketch=0;points=[[0,0,0],[0.25,0,0],[0.5,0,0],[0.75,0,0],[1,0,0],[0,1,0],[0.25,1,0],[0.5,1,0],[0.75,1,0],[1,1,0],[0,0.25,0],[0,0.5,0],[0,0.75,0],[1,0.25,0],[1,0.5,0],[1,0.75,0]];outlineConnect=0;fontColor=#FFFFFF;fillColor=#ED7100;strokeColor=#ffffff;dashed=0;verticalLabelPosition=bottom;verticalAlign=top;align=center;fontSize=12;fontStyle=0;aspect=fixed;shape=mxgraph.aws4.resourceIcon;resIcon=mxgraph.aws4.lambda;fontFamily=Helvetica;html=1;" parent="1" vertex="1">
          <mxGeometry x="320" y="223" width="78" height="78" as="geometry" />
        </mxCell>
        <mxCell id="m1kPSWAIxEd_lFpvvYN0-3" value="" style="edgeStyle=orthogonalEdgeStyle;rounded=0;orthogonalLoop=1;jettySize=auto;entryX=0.5;entryY=0;entryDx=0;entryDy=0;entryPerimeter=0;fontFamily=Helvetica;fontColor=#FFFFFF;html=1;" parent="1" source="m1kPSWAIxEd_lFpvvYN0-1" target="m1kPSWAIxEd_lFpvvYN0-2" edge="1">
          <mxGeometry relative="1" as="geometry" />
        </mxCell>
        <mxCell id="pze8DI6Sxg6kq2NsFFnC-2" value="" style="edgeStyle=orthogonalEdgeStyle;rounded=0;orthogonalLoop=1;jettySize=auto;fontFamily=Helvetica;fontColor=#FFFFFF;html=1;" edge="1" parent="1" source="m1kPSWAIxEd_lFpvvYN0-4" target="m1kPSWAIxEd_lFpvvYN0-6">
          <mxGeometry relative="1" as="geometry" />
        </mxCell>
        <mxCell id="m1kPSWAIxEd_lFpvvYN0-4" value="rss-feed-topic" style="sketch=0;points=[[0,0,0],[0.25,0,0],[0.5,0,0],[0.75,0,0],[1,0,0],[0,1,0],[0.25,1,0],[0.5,1,0],[0.75,1,0],[1,1,0],[0,0.25,0],[0,0.5,0],[0,0.75,0],[1,0.25,0],[1,0.5,0],[1,0.75,0]];outlineConnect=0;fontColor=#FFFFFF;fillColor=#E7157B;strokeColor=#ffffff;dashed=0;verticalLabelPosition=bottom;verticalAlign=top;align=center;fontSize=12;fontStyle=0;aspect=fixed;shape=mxgraph.aws4.resourceIcon;resIcon=mxgraph.aws4.sns;fontFamily=Helvetica;html=1;" parent="1" vertex="1">
          <mxGeometry x="320" y="372" width="78" height="78" as="geometry" />
        </mxCell>
        <mxCell id="m1kPSWAIxEd_lFpvvYN0-17" value="" style="edgeStyle=orthogonalEdgeStyle;rounded=0;orthogonalLoop=1;jettySize=auto;fontFamily=Helvetica;fontColor=#FFFFFF;html=1;" parent="1" source="m1kPSWAIxEd_lFpvvYN0-6" target="m1kPSWAIxEd_lFpvvYN0-15" edge="1">
          <mxGeometry relative="1" as="geometry">
            <mxPoint x="569" y="464" as="targetPoint" />
          </mxGeometry>
        </mxCell>
        <mxCell id="m1kPSWAIxEd_lFpvvYN0-18" value="" style="edgeStyle=orthogonalEdgeStyle;rounded=0;orthogonalLoop=1;jettySize=auto;fontFamily=Helvetica;fontColor=#FFFFFF;html=1;" parent="1" source="m1kPSWAIxEd_lFpvvYN0-6" target="m1kPSWAIxEd_lFpvvYN0-14" edge="1">
          <mxGeometry relative="1" as="geometry" />
        </mxCell>
        <mxCell id="m1kPSWAIxEd_lFpvvYN0-6" value="rss-push-sns-topic-lambda" style="sketch=0;points=[[0,0,0],[0.25,0,0],[0.5,0,0],[0.75,0,0],[1,0,0],[0,1,0],[0.25,1,0],[0.5,1,0],[0.75,1,0],[1,1,0],[0,0.25,0],[0,0.5,0],[0,0.75,0],[1,0.25,0],[1,0.5,0],[1,0.75,0]];outlineConnect=0;fontColor=#FFFFFF;fillColor=#ED7100;strokeColor=#ffffff;dashed=0;verticalLabelPosition=bottom;verticalAlign=top;align=center;fontSize=12;fontStyle=0;aspect=fixed;shape=mxgraph.aws4.resourceIcon;resIcon=mxgraph.aws4.lambda;fontFamily=Helvetica;html=1;" parent="1" vertex="1">
          <mxGeometry x="320" y="512" width="78" height="78" as="geometry" />
        </mxCell>
        <mxCell id="m1kPSWAIxEd_lFpvvYN0-7" value="" style="edgeStyle=orthogonalEdgeStyle;rounded=0;orthogonalLoop=1;jettySize=auto;entryX=0.5;entryY=0;entryDx=0;entryDy=0;entryPerimeter=0;fontFamily=Helvetica;fontColor=#FFFFFF;html=1;" parent="1" source="m1kPSWAIxEd_lFpvvYN0-4" target="m1kPSWAIxEd_lFpvvYN0-6" edge="1">
          <mxGeometry relative="1" as="geometry" />
        </mxCell>
        <mxCell id="m1kPSWAIxEd_lFpvvYN0-13" value="外部HP" style="image;points=[];aspect=fixed;align=center;shadow=0;dashed=0;image=img/lib/allied_telesis/computer_and_terminals/Server_Desktop.svg;fontFamily=Helvetica;fontColor=#FFFFFF;html=1;" parent="1" vertex="1">
          <mxGeometry x="140" y="212" width="71" height="90" as="geometry" />
        </mxCell>
        <mxCell id="m1kPSWAIxEd_lFpvvYN0-14" value="SES" style="outlineConnect=0;dashed=0;verticalLabelPosition=bottom;verticalAlign=top;align=center;shape=mxgraph.aws3.ses;fillColor=#D9A741;gradientColor=none;fontFamily=Helvetica;fontColor=#FFFFFF;html=1;" parent="1" vertex="1">
          <mxGeometry x="319.25" y="649" width="79.5" height="93" as="geometry" />
        </mxCell>
        <mxCell id="m1kPSWAIxEd_lFpvvYN0-15" value="Amazon&lt;br&gt;CloudWatch" style="outlineConnect=0;fontColor=#FFFFFF;gradientColor=#F34482;gradientDirection=north;fillColor=#BC1356;strokeColor=#ffffff;dashed=0;verticalLabelPosition=bottom;verticalAlign=top;align=center;fontSize=12;fontStyle=0;aspect=fixed;shape=mxgraph.aws4.resourceIcon;resIcon=mxgraph.aws4.cloudwatch;labelBackgroundColor=none;fontFamily=Helvetica;html=1;" parent="1" vertex="1">
          <mxGeometry x="530.0000000000002" y="386" width="78" height="78" as="geometry" />
        </mxCell>
        <mxCell id="m1kPSWAIxEd_lFpvvYN0-19" value="" style="edgeStyle=orthogonalEdgeStyle;rounded=0;orthogonalLoop=1;jettySize=auto;entryX=1;entryY=0.5;entryDx=0;entryDy=0;entryPerimeter=0;fontFamily=Helvetica;fontColor=#FFFFFF;html=1;" parent="1" source="UEzPUAAOIrF-is8g5C7q-116" target="m1kPSWAIxEd_lFpvvYN0-2" edge="1">
          <mxGeometry relative="1" as="geometry" />
        </mxCell>
      </root>
    </mxGraphModel>
  </diagram>
</mxfile>
